<svg xmlns="http://www.w3.org/2000/svg" viewBox="0 0 298.25 227.21"><defs><style>.cls-1{fill:#fff;}</style></defs><g id="Capa_2" data-name="Capa 2"><g id="object"><path class="cls-1" d="M0,149.18c1.83-4.18,5-5.62,9.53-5.54,11.15.2,22.31,0,33.47.09,4.51,0,7.56,2.65,7.85,6.52a6.92,6.92,0,0,1-6.61,7.67c-12.51.12-25,.08-37.54,0-3.48,0-5.17-2.61-6.7-5.26Z"/><path class="cls-1" d="M282.47,183.2c1.63-2.58,2.21-33.3.95-42.1h-3.28c-33.6,0-67.21-.22-100.8.16A30.88,30.88,0,0,1,158,133.78a192.15,192.15,0,0,1-28-28.71c-1.94-2.47-4.1-5-3.19-8.66.72-2.86,2.26-4.89,5.28-5.51a6.79,6.79,0,0,1,7.4,2.79A164.67,164.67,0,0,0,167,122.47a17.51,17.51,0,0,0,12.11,4.45c30.69-.22,61.38-.11,92.07-.11h4a21.66,21.66,0,0,0-1.61-1.83c-16.08-14.07-32.06-28.23-48.29-42.11-7.39-6.33-15.32-12.15-25.11-14.12a92.5,92.5,0,0,0-17-1.71c-15.82-.22-31.66-.06-47.49-.09-4.48,0-7.68-2.61-8.05-6.39-.44-4.55,2.85-8,7.87-8q15.15-.09,30.3,0,12.38.07,24.75.39a60,60,0,0,1,35.59,12.69q17,13,33.15,27.05c10.12,8.77,19.83,18,29.53,27.26a28.5,28.5,0,0,1,9,20.27c.43,13.58.64,27.18.42,40.76-.13,8.26-5,13.89-12.32,17.23a5.06,5.06,0,0,0-3.2,3.65,33.76,33.76,0,0,1-65.54-.54c-5.5-21.77,12.11-43.12,34.51-41.67,14.34.92,24.24,8.29,29.89,21.45C281.76,181.69,282.05,182.29,282.47,183.2Zm-32.34,29.56a19.49,19.49,0,1,0-19.56-19.26A19.51,19.51,0,0,0,250.13,212.76Z"/><path class="cls-1" d="M79.55,24.22C65,15.58,44.28,19,32,31.79a40.3,40.3,0,0,0,35.2,67.79c16.57-2.4,30.3-15.76,33.44-32.59a44.43,44.43,0,0,0-.82-18.18,7.27,7.27,0,0,1,5.38-9c3.81-.89,7.57,1.67,8.57,5.94a65.15,65.15,0,0,1,1.47,7.41c3.22,28.45-15,53.78-43.13,60.07C42.05,120,11,98.4,7,68,3.51,42.19,16.59,19.15,40.41,9.14A3.09,3.09,0,0,0,42.7,6.3,7.1,7.1,0,0,1,50,.06q10.92-.12,21.85,0c4.14.05,6.69,2.51,7.51,6.69a3.43,3.43,0,0,0,1.55,2,43.61,43.61,0,0,0,6.32,2.93,2.88,2.88,0,0,0,2.54-.61c1.93-2.17,3.6-4.58,5.45-6.82C98,.9,102.4.27,105.52,2.72s3.65,6.92.93,10.41Q86.71,38.54,66.83,63.85a7.22,7.22,0,0,1-10.33,1.5c-3.09-2.44-3.57-6.94-.87-10.43,7-9.07,14.09-18.07,21.14-27.09Z"/><path class="cls-1" d="M86.23,183.1a36.63,36.63,0,0,1,10.6-15.72c15.57-13.65,41.75-8.82,51.27,9.59a35.68,35.68,0,0,1,2.75,6.69c.56,2,1.53,2.49,3.48,2.47q18.49-.12,37,0a13,13,0,0,1,4.81.79,7,7,0,0,1,4.12,7.6,7.49,7.49,0,0,1-7,6c-.87,0-1.75,0-2.62,0-12.13,0-24.27,0-36.4,0-1.79,0-2.73.35-3.31,2.24C147.08,215.2,138.69,223,126,226.26c-16.51,4.26-35.33-6.59-39.71-23.07a7.34,7.34,0,0,0-4.43-5.4c-7.68-3.64-11.66-10-11.68-18.58q0-22.86,0-45.72c0-4.89,3-8.19,7.22-8.17s7.1,3.35,7.11,8.24c0,14.95,0,29.9,0,44.85a31.55,31.55,0,0,0,.72,4.68Zm32.25,29.66a19.5,19.5,0,1,0-19.42-19.45A19.59,19.59,0,0,0,118.48,212.76Z"/><path class="cls-1" d="M35.78,169.54c2.72,0,5.44-.08,8.15,0a7.14,7.14,0,0,1,7,6.85,6.85,6.85,0,0,1-6.44,7.27c-5.91.23-11.85.24-17.76,0a6.83,6.83,0,0,1-6.36-7.33,7.14,7.14,0,0,1,7-6.78C30.14,169.46,33,169.54,35.78,169.54Z"/><path class="cls-1" d="M117.24,141.63c-2.57-.61-5.32-.85-7.66-1.94-2.68-1.26-3.67-4.6-3-7.52a6.89,6.89,0,0,1,5.94-5.19,77.08,77.08,0,0,1,9.85,0,7,7,0,0,1,6.35,7.07,7.26,7.26,0,0,1-6.77,7c-1.54.1-3.09,0-4.64,0Z"/><path class="cls-1" d="M60.89,90.9a7.17,7.17,0,1,1,7.26-7.22A7.4,7.4,0,0,1,60.89,90.9Z"/><path class="cls-1" d="M257.11,193.23a7.11,7.11,0,1,1-7-7.07A7.22,7.22,0,0,1,257.11,193.23Z"/><path class="cls-1" d="M118.43,200.46a7.15,7.15,0,1,1,7.32-7.17A7.45,7.45,0,0,1,118.43,200.46Z"/></g></g></svg>