<svg xmlns="http://www.w3.org/2000/svg" viewBox="0 0 167.13 167.03"><defs><style>.cls-1{fill:#fff;}</style></defs><g id="Capa_2" data-name="Capa 2"><g id="object"><path class="cls-1" d="M167.13,88.75c-.42,3.06-.74,6.14-1.29,9.17a82.1,82.1,0,0,1-26.84,48,80.32,80.32,0,0,1-44.18,20.35c-24.47,3.1-46.37-3.25-65.25-19.17a81,81,0,0,1-28-48A82.08,82.08,0,0,1,8,48c.11-.24.24-.47.48-.93l4.75,2.3c-.77,1.82-1.54,3.54-2.25,5.28A78.17,78.17,0,0,0,38.08,147c15.39,10.93,32.57,16.1,51.32,14.39,29.83-2.73,51.89-17.76,64.81-44.74C169,85.72,162,50.3,137.11,26.71A74.9,74.9,0,0,0,91.59,5.86C68.24,3.64,47.83,10.53,30.42,26.28c-2.22,2-3.22,2-5.36-.15-1-1-2-2.1-3.32-3.4V40.3H39a12.44,12.44,0,0,0-.78-1c-1.49-1.51-3-3-4.49-4.51s-1.42-3,.1-4.38A70.9,70.9,0,0,1,61,14.38C97.25,2.88,135.11,20,150.44,54.84c13.06,29.63,3.87,65.78-21.7,85.7-11.13,8.66-23.63,14.11-37.67,15.31-26.23,2.24-47.87-6.95-64.55-27.34A69.47,69.47,0,0,1,11.23,91.18,71.82,71.82,0,0,1,18.5,51c.14-.29.32-.56.57-1l4.62,2.4c-9.57,20.05-10.3,40.21-.76,60.3a65.23,65.23,0,0,0,34.66,32.95c31,13.05,67.22,1,83.95-27.81,17.39-29.91,10.18-67-17.31-87.95C97.49,9.47,61.47,13,39.43,32.79c.39.42.77.85,1.17,1.25,2.34,2.35,4.77,4.62,7,7.09A3.4,3.4,0,0,1,48.23,44a3.22,3.22,0,0,1-2.41,1.68c-9,.12-17.95.09-26.92,0a2.46,2.46,0,0,1-2.64-2.7c0-8.92-.07-17.84,0-26.76a3.88,3.88,0,0,1,1.6-2.53c1-.74,2.19-.2,3.07.68l6.78,6.87c1.57-1.29,3-2.48,4.42-3.61A83.07,83.07,0,0,1,72.39.73c2.09-.29,4.2-.49,6.3-.73H88.81c2.84.37,5.7.65,8.53,1.13a81.62,81.62,0,0,1,38.72,17.51,82.34,82.34,0,0,1,29.79,50.5c.54,3,.86,6.11,1.28,9.17Z"/><path class="cls-1" d="M45.84,78.25q0-11.58,0-23.16c0-3.09.74-3.81,3.83-3.9A48.62,48.62,0,0,0,80.32,39.64l.87-.73c1.94-1.58,2.93-1.61,4.86.05a49.7,49.7,0,0,0,17.29,9.85,49.45,49.45,0,0,0,14.58,2.39c2.52,0,3.41.93,3.41,3.49,0,14.68.08,29.36,0,44-.07,10.51-4.48,18.87-13.1,24.92-7.43,5.21-14.91,10.34-22.37,15.5-1.86,1.29-2.67,1.26-4.57-.06l-22-15.21c-8.93-6.18-13.39-14.73-13.45-25.57C45.81,91.62,45.84,84.93,45.84,78.25Zm5.51-21.69c0,.57-.08,1-.08,1.52,0,13.59-.05,27.18,0,40.77a23.69,23.69,0,0,0,10.58,20.23c6.84,4.82,13.76,9.52,20.61,14.32a1.64,1.64,0,0,0,2.26,0c6.72-4.71,13.49-9.35,20.22-14a24.23,24.23,0,0,0,11-21q0-20,0-40V56.55A54.57,54.57,0,0,1,83.63,44C71.22,52.81,65.07,55.21,51.35,56.56Z"/><path class="cls-1" d="M56.63,88.94a27,27,0,1,1,27,26.9A27,27,0,0,1,56.63,88.94ZM83.56,67.36a21.56,21.56,0,1,0,21.57,21.4A21.57,21.57,0,0,0,83.56,67.36Z"/><path class="cls-1" d="M91.87,74.45l5,2c-1.16,2.89-2.26,5.65-3.36,8.41Q90,93.7,86.44,102.53c-1.2,3-3.13,3.38-5.43,1.09-3.35-3.33-6.68-6.67-10.07-10l3.79-3.68,7.8,7.83Z"/></g></g></svg>