<svg xmlns="http://www.w3.org/2000/svg" viewBox="0 0 119.28 119.28"><defs><style>.cls-1{fill:none;stroke:#fff;stroke-miterlimit:10;}.cls-2{fill:#fff;}</style></defs><g id="Capa_2" data-name="Capa 2"><g id="object"><circle class="cls-1" cx="59.64" cy="59.64" r="59.14"/><path class="cls-2" d="M90.84,48h-22l.47-1a20.12,20.12,0,0,0,1-13.85c-.57-1.86-1.39-3.76-3.85-4.62-1-.35-4-.36-4,1.58,0,0,.91,5.73,0,8.44A33,33,0,0,1,57.14,48H52.76V80.9H85.08A3.86,3.86,0,0,0,89,77v-.51a3.86,3.86,0,0,0-3.87-3.86h2A3.86,3.86,0,0,0,91,68.8v-.51a3.86,3.86,0,0,0-3.86-3.86H89a3.86,3.86,0,0,0,3.86-3.87v-.5A3.86,3.86,0,0,0,89,56.19h1.84a3.86,3.86,0,0,0,3.87-3.86v-.51A3.86,3.86,0,0,0,90.84,48Z"/><path class="cls-2" d="M46.3,45.05H32.15A2.75,2.75,0,0,0,29.4,47.8V82a2.75,2.75,0,0,0,2.75,2.75H46.3A2.75,2.75,0,0,0,49.05,82V47.8A2.75,2.75,0,0,0,46.3,45.05Zm-3,36.56a2.84,2.84,0,1,1,2.84-2.83A2.83,2.83,0,0,1,43.27,81.61Z"/><path class="cls-2" d="M79.46,37.7h0A6.43,6.43,0,0,0,73,31.26h0a6.43,6.43,0,0,0,6.43-6.43h0a6.44,6.44,0,0,0,6.44,6.43h0A6.44,6.44,0,0,0,79.46,37.7Z"/><rect class="cls-2" x="85.9" y="37.7" width="6.89" height="6.89" rx="3.45"/><path class="cls-2" d="M52.76,45.51h0a6.43,6.43,0,0,0-6.43-6.43h0a6.43,6.43,0,0,0,6.43-6.43h0a6.43,6.43,0,0,0,6.43,6.43h0A6.43,6.43,0,0,0,52.76,45.51Z"/><rect class="cls-2" x="37.66" y="25.32" width="6.89" height="6.89" rx="3.45"/><rect class="cls-2" x="59.19" y="84.75" width="6.89" height="6.89" rx="3.45"/><rect class="cls-2" x="94.71" y="64.9" width="6.89" height="6.89" rx="3.45"/></g></g></svg>